<?xml version="1.0" encoding="iso-8859-1"?>
<!-- Generator: Adobe Illustrator 17.1.0, SVG Export Plug-In . SVG Version: 6.00 Build 0)  -->
<!DOCTYPE svg PUBLIC "-//W3C//DTD SVG 1.1//EN" "http://www.w3.org/Graphics/SVG/1.1/DTD/svg11.dtd">
<svg version="1.1" id="Capa_1" xmlns="http://www.w3.org/2000/svg" xmlns:xlink="http://www.w3.org/1999/xlink" x="0px" y="0px"
	 viewBox="0 0 463.439 463.439" style="enable-background:new 0 0 463.439 463.439;" xml:space="preserve">
<path id="XMLID_616_" d="M419.87,112.561c-2.224-10.475-9.523-19.316-19.052-23.076c-6.662-2.627-13.605-2.447-19.544,0.51
	c-4.283,2.131-7.696,5.532-9.928,9.819c-0.063,0-0.125,0-0.188,0c-12.743,0-25.245,2.567-36.809,7.39
	c14.193-16.893,29.418-32.612,45.555-47.026c3.813,2.307,8.135,3.446,12.556,3.26c6.63-0.274,12.797-3.462,17.367-8.976
	c6.535-7.886,8.668-19.152,5.567-29.401c-0.515-1.701-1.703-3.117-3.29-3.919c-9.556-4.831-21.021-4.685-29.921,0.387
	c-6.223,3.546-10.431,9.068-11.85,15.551c-0.97,4.43-0.56,8.967,1.141,13.197c-26.245,23.411-50.14,50.171-71.191,79.719
	c-7.483-17.326-18.603-31.632-31.906-40.265c-2.152-1.396-4.924-1.396-7.076,0c-9.187,5.961-17.33,14.626-23.956,25.126
	c-12.617-16.052-32.874-29.971-53.715-36.963c10.152-9.845,16.55-22.22,17.146-33.734c0.133-2.562-1.253-4.962-3.538-6.127
	c-11.439-5.836-27.396-5.972-42.403-0.521c-2.782-15.723-10.882-29.472-21.655-36.463c-2.152-1.396-4.925-1.396-7.077,0.001
	c-10.769,6.989-18.867,20.735-21.653,36.459c-15.009-5.449-30.966-5.311-42.403,0.524c-2.285,1.165-3.671,3.565-3.538,6.127
	c0.666,12.822,8.523,26.712,20.749,36.986c-12.226,10.271-20.083,24.161-20.749,36.985c-0.133,2.562,1.253,4.962,3.537,6.127
	c11.992,6.119,28.955,5.975,44.582-0.309c-0.702,4.271,0.494,8.553,3.4,12.121c3.578,4.392,9.365,7.12,15.104,7.12
	c1.51,0,3.021-0.183,4.511-0.546c1.491,0.363,3.002,0.546,4.513,0.546c5.736,0,11.523-2.729,15.103-7.121
	c2.907-3.568,4.104-7.851,3.4-12.121c15.633,6.283,32.594,6.427,44.582,0.31c2.284-1.166,3.67-3.565,3.537-6.127
	c-0.38-7.34-3.118-15.03-7.683-22.191c15.392,7.768,29.352,19.317,37.391,31.615c-4.478,9.748-7.787,20.527-9.656,31.84
	c-0.311,1.882-0.87,6.17-0.897,6.411c-0.224-0.097-4.688-1.947-6.712-2.695c-28.394-10.498-58.496-10.412-79.857,0.488
	c-2.284,1.166-3.67,3.565-3.537,6.127c1.33,25.653,18.426,53.788,44.615,73.426c0.195,0.146,0.39,0.292,0.586,0.438
	c-0.196,0.145-0.392,0.29-0.586,0.437c-26.189,19.639-43.285,47.775-44.615,73.432c-0.133,2.562,1.253,4.962,3.537,6.127
	c20.498,10.458,49.043,10.954,76.403,1.705c-6.159,26.994-10.505,55.177-12.899,83.467c-16.045-28.563-41.784-48.347-70.034-53.477
	c-22.394-4.064-43.461,0.986-59.321,14.226c-15.531,12.964-24.084,32.199-24.084,54.16c0,12.058,2.558,24.117,7.602,35.844
	c1.025,2.386,3.373,3.932,5.971,3.932c2.597,0,4.944-1.546,5.971-3.932c11.566-26.888,36.634-47.456,63.862-52.399
	c17.716-3.218,34.449,0.397,47.117,10.173c12.104,9.34,19.475,23.578,20.76,40.099c0.226,3.371,3.022,6.043,6.453,6.06
	c0.012,0,0.021,0,0.033,0c3.574,0,6.481-2.89,6.499-6.469c0-0.014,0-0.025,0-0.04l0.002-0.164c0.006-0.468,0.009-0.978,0.009-1.528
	c0.361-45.655,6.177-92.589,16.85-135.984c1.129-0.544,2.246-1.104,3.35-1.679l-2.313,11.225
	c-1.434,6.953,0.423,14.032,5.229,19.931c5.926,7.273,15.524,11.792,25.054,11.792c3.001,0,6.007-0.439,8.965-1.31
	c2.958,0.87,5.965,1.31,8.97,1.31c9.524,0,19.123-4.519,25.049-11.793c4.807-5.898,6.663-12.977,5.229-19.929l-2.313-11.228
	c2.799,1.456,5.684,2.819,8.644,4.084c30.104,12.86,63.019,13.599,85.898,1.926c2.284-1.166,3.67-3.565,3.537-6.126
	c-1.328-25.659-18.423-53.798-44.613-73.433c-0.194-0.146-0.389-0.291-0.584-0.437c0.195-0.145,0.389-0.288,0.583-0.435
	c26.188-19.637,43.284-47.772,44.614-73.429c0.133-2.562-1.253-4.961-3.537-6.127c-22.882-11.678-55.797-10.94-85.898,1.92
	c-0.223,0.095-0.445,0.19-0.667,0.287c-0.027-0.241-2.276-14.322-4.114-20.771c0.202-0.296,0.406-0.593,0.609-0.888
	c15.467-19.359,38.723-30.796,63.166-31.315c0.707,4.067,2.466,7.811,5.188,10.923c4.368,4.994,10.717,7.805,17.878,7.911
	c10.28,0.127,20.358-5.245,26.402-14.087C419.881,116.111,420.24,114.299,419.87,112.561z M383.034,39.857
	c0.621-2.838,2.605-5.336,5.586-7.035c4.301-2.448,9.921-2.847,14.958-1.184c0.765,5.25-0.602,10.716-3.76,14.527
	c-2.188,2.641-4.993,4.162-7.896,4.281c-2.602,0.119-5.164-0.926-7.273-2.919C383.051,45.104,382.478,42.397,383.034,39.857z
	 M116.796,42.827c1.371-11.384,6.256-21.878,12.846-28.077c6.592,6.199,11.476,16.695,12.847,28.087
	c0.024,0.2,0.048,0.4,0.069,0.602c-5.128,3.186-9.511,6.962-12.915,11.119c-3.404-4.158-7.787-7.936-12.916-11.121
	C116.749,43.232,116.772,43.029,116.796,42.827z M109.953,107.754c-2.199,1.374-4.568,2.605-7.07,3.675
	c-10.545,4.504-22.076,5.521-30.739,2.914c2.072-8.808,8.719-18.284,17.896-25.166c0.16-0.12,0.321-0.239,0.483-0.358
	c6.302,3.383,12.779,5.432,19.015,5.998c0.628,1.403,1.383,2.742,2.257,4.001L109.953,107.754z M107.424,81.369
	c-4.405-0.914-9.044-2.835-13.536-5.624c-0.111-0.075-0.226-0.146-0.341-0.214c-1.184-0.748-2.356-1.557-3.512-2.422
	c-9.174-6.88-15.82-16.357-17.893-25.163c8.665-2.61,20.195-1.592,30.739,2.913c1.352,0.577,2.662,1.202,3.924,1.869
	c0.067,0.037,0.135,0.073,0.203,0.108c4.993,2.667,9.224,5.989,12.284,9.61C112.861,66.132,108.262,73.14,107.424,81.369z
	 M139.179,127.856c-1.119,1.374-3.187,2.333-5.026,2.333c-0.72,0-1.497-0.147-2.247-0.427c-0.73-0.271-3.797-0.271-4.527,0
	c-0.75,0.279-1.527,0.427-2.247,0.427c-1.84,0-3.906-0.959-5.025-2.332c-0.816-1.002-0.68-1.664-0.635-1.884l2.663-12.922
	c0.007-0.033,0.014-0.066,0.021-0.101l2.988-14.5c0.427-2.071-0.181-4.222-1.63-5.764c-2.051-2.181-3.227-5.315-3.227-8.6
	c0-6.16,4.018-11.196,9.022-11.411c0.074-0.001,0.593-0.001,0.665,0c5.006,0.215,9.023,5.251,9.023,11.411
	c0,3.283-1.176,6.419-3.227,8.603c-1.446,1.542-2.054,3.69-1.627,5.761l2.97,14.415c0.017,0.09,0.035,0.179,0.056,0.268
	l2.646,12.841C139.86,126.192,139.996,126.854,139.179,127.856z M139.992,62.448c3.873-4.581,9.62-8.685,16.415-11.587
	c10.541-4.506,22.073-5.526,30.735-2.915c-2.071,8.806-8.718,18.283-17.892,25.163c-1.052,0.789-3.741,2.562-3.854,2.637
	c-4.491,2.789-9.13,4.711-13.537,5.623C151.022,73.141,146.424,66.133,139.992,62.448z M156.404,111.428
	c-2.496-1.066-4.865-2.298-7.07-3.675l-1.842-8.938c0.874-1.258,1.627-2.596,2.255-3.999c6.237-0.565,12.717-2.614,19.018-5.998
	c0.162,0.119,0.324,0.239,0.486,0.36c9.175,6.879,15.821,16.357,17.892,25.164C178.484,116.951,166.95,115.932,156.404,111.428z
	 M124.51,394.317c-26.466,4.806-51.117,22.311-66.139,46.124c-1.293-5.576-1.944-11.185-1.944-16.777
	c0-18.039,6.895-33.729,19.415-44.181c9.9-8.266,22.434-12.568,36.145-12.568c4.082,0,8.271,0.382,12.523,1.154
	c20.995,3.813,40.497,17.186,54.549,36.853C163.848,394.431,144.622,390.668,124.51,394.317z M232.923,166.637
	c3.188-26.46,15.535-50.804,31.916-63.487c16.383,12.685,28.731,37.028,31.919,63.485c0.215,1.792,0.389,3.605,0.52,5.424
	c-11.59,6.664-21.295,14.858-28.438,23.948v-38.594c0-2.209-1.791-4-4-4s-4,1.791-4,4v38.592
	c-7.143-9.09-16.849-17.284-28.438-23.946C232.533,170.253,232.706,168.44,232.923,166.637z M143.216,173.371
	c19.17-7.852,46.427-6.374,70.938,4.1c17.574,7.51,31.952,18.953,39.986,31.541c-7.693,2.503-14.377,7.639-19.211,14.457
	l-42.113-26.422c-1.871-1.172-4.34-0.608-5.515,1.263c-1.174,1.871-0.608,4.34,1.263,5.515l42.366,26.581
	c-2.628,5.722-4.118,12.19-4.118,19.038c0,0.667,0.014,1.331,0.041,1.993c-11.777-1.057-24.609-5.704-36.808-13.33
	c-0.03-0.02-0.061-0.038-0.091-0.057c-2.605-1.633-5.184-3.401-7.715-5.3C160.913,216.759,146.005,193.896,143.216,173.371z
	 M231.438,300.428c-5.299,3.521-11.102,6.637-17.284,9.277c-24.509,10.472-51.767,11.951-70.938,4.104
	c2.789-20.527,17.697-43.394,39.023-59.385c1.452-1.089,2.942-2.15,4.455-3.176c14.108,8.141,28.968,12.826,42.635,13.364
	c0.392,1.13,0.83,2.239,1.31,3.327l-41.92,23.727c-1.922,1.089-2.599,3.529-1.511,5.452c0.736,1.3,2.091,2.03,3.485,2.03
	c0.667,0,1.344-0.168,1.967-0.52l41.884-23.707c0.536,0.778,1.09,1.544,1.678,2.285L231.438,300.428z M288.78,340.519
	c-3.467,4.255-9.343,7.004-14.975,7.004c-1.619,0-3.307-0.239-4.966-0.693v-46.257c0-2.209-1.791-4-4-4s-4,1.791-4,4v46.257
	c-1.659,0.454-3.348,0.693-4.969,0.693c-5.629,0-11.505-2.749-14.972-7.004c-1.62-1.988-3.383-5.18-2.575-9.095l11.277-54.724
	c0.427-2.071-0.181-4.222-1.63-5.764c-5.186-5.516-8.159-13.35-8.159-21.493c0-15.743,10.786-28.609,24.209-29.113
	c0.135-0.019,1.488,0.01,1.637,0c13.422,0.504,24.207,13.37,24.207,29.113c0,8.144-2.974,15.978-8.157,21.494
	c-1.449,1.541-2.057,3.691-1.63,5.763l11.276,54.726C292.161,335.338,290.4,338.53,288.78,340.519z M386.462,313.81
	c-19.169,7.846-46.426,6.366-70.939-4.107c-6.186-2.643-11.988-5.757-17.283-9.274l-4.784-23.221
	c0.681-0.859,1.324-1.746,1.935-2.655l42.541,24.078c0.623,0.352,1.3,0.52,1.967,0.52c1.395,0,2.749-0.73,3.485-2.03
	c1.088-1.923,0.411-4.363-1.511-5.452l-42.66-24.145c0.409-0.955,0.792-1.922,1.134-2.909c13.671-0.538,28.534-5.225,42.641-13.363
	c1.506,1.021,2.995,2.081,4.451,3.174C368.766,270.413,383.674,293.28,386.462,313.81z M315.525,177.472
	c24.511-10.473,51.768-11.951,70.937-4.101c-2.789,20.526-17.697,43.392-39.023,59.382c-2.504,1.878-5.053,3.63-7.631,5.248
	c-0.085,0.051-0.169,0.104-0.253,0.158c-12.174,7.596-24.974,12.225-36.73,13.277c0.027-0.661,0.041-1.326,0.041-1.993
	c0-7.045-1.573-13.689-4.344-19.531l41.58-26.088c1.871-1.175,2.437-3.644,1.263-5.515s-3.642-2.435-5.515-1.263l-41.413,25.983
	c-4.807-6.599-11.368-11.568-18.895-14.018C283.572,196.426,297.95,184.982,315.525,177.472z M392.893,118.668
	c-0.075,0-0.149,0-0.224-0.001c-3.431-0.052-6.373-1.284-8.285-3.471c-1.712-1.958-2.515-4.605-2.283-7.5
	c0.888-2.764,2.637-4.905,4.965-6.063c2.601-1.294,5.79-1.314,8.982-0.056c4.605,1.817,8.437,5.948,10.297,10.916
	C402.788,116.32,397.772,118.668,392.893,118.668z"/>
<g>
</g>
<g>
</g>
<g>
</g>
<g>
</g>
<g>
</g>
<g>
</g>
<g>
</g>
<g>
</g>
<g>
</g>
<g>
</g>
<g>
</g>
<g>
</g>
<g>
</g>
<g>
</g>
<g>
</g>
</svg>
