<?xml version="1.0" encoding="utf-8"?>
<!-- Generator: Adobe Illustrator 18.0.0, SVG Export Plug-In . SVG Version: 6.00 Build 0)  -->
<!DOCTYPE svg PUBLIC "-//W3C//DTD SVG 1.1//EN" "http://www.w3.org/Graphics/SVG/1.1/DTD/svg11.dtd">
<svg version="1.1" id="Layer_1" xmlns="http://www.w3.org/2000/svg" xmlns:xlink="http://www.w3.org/1999/xlink" x="0px" y="0px"
	 viewBox="0 0 100 100" enable-background="new 0 0 100 100" xml:space="preserve">
<g>
	<linearGradient id="SVGID_1_" gradientUnits="userSpaceOnUse" x1="18.7799" y1="12.5152" x2="61.2411" y2="12.5152">
		<stop  offset="0" style="stop-color:#09FFEE"/>
		<stop  offset="0.9946" style="stop-color:#CFFF11"/>
	</linearGradient>
	<path fill="none" stroke="url(#SVGID_1_)" stroke-width="0.6" stroke-miterlimit="10" d="M60.7,1.6c-0.8-0.1-1.5-0.1-2.2-0.1
		c-0.6,0-1.3,0.1-1.8,0.2c-0.9,0.2-1.8,0.5-2.6,0.8c-0.6,0.3-1.2,0.6-1.7,0.9c-0.7,0.4-1.2,0.8-1.7,1.3c-0.5,0.4-0.8,0.8-1.1,1.1
		c-0.4-0.3-0.9-0.6-1.6-1c-0.3-0.2-0.7-0.4-1.1-0.5c-0.4-0.2-0.8-0.3-1.3-0.5c-0.6-0.2-1.2-0.4-1.9-0.4c-0.4-0.1-0.9-0.1-1.3-0.1
		c-0.5,0-0.9,0-1.4,0c-0.6,0-1.2,0.1-1.8,0.3c-0.5,0.1-0.9,0.3-1.4,0.4c-0.4,0.1-0.7,0.3-1.1,0.4C36,4.7,35.4,5,34.9,5.3
		c-0.4,0.3-0.8,0.5-1.1,0.8c-0.3,0.3-0.7,0.6-1,0.9c-0.5,0.5-0.9,1-1.2,1.5c-0.6,0.8-1.1,1.7-1.4,2.4c-0.2,0.4-0.3,0.7-0.4,1
		c-0.1,0.3-0.2,0.6-0.3,0.8c-0.7-0.1-1.9-0.2-3.3-0.1c-0.6,0.1-1.3,0.2-2,0.3c-0.8,0.2-1.7,0.5-2.6,1c-0.5,0.3-1.1,0.6-1.6,0.9
		c-0.3,0.2-0.5,0.4-0.8,0.6l0.5,0.6c0.3-0.2,0.6-0.4,0.9-0.6l5.9,6.1c-0.2,0.4-0.5,0.8-0.8,1.1l0.5,0.6c0.3-0.3,0.6-0.7,0.8-1.1
		c0.3-0.4,0.6-0.8,0.8-1.3c0.4-0.7,0.8-1.4,1-2.1c0.2-0.6,0.5-1.1,0.7-1.6c0.4-1.2,0.8-2.3,0.9-3c0.2,0,0.5,0.1,0.8,0.1
		c0.3,0.1,0.7,0.1,1.1,0.1c0.8,0.1,1.6,0.1,2.6,0.2c0.5,0,1.1,0,1.7,0c0.4,0,0.7,0,1.1-0.1c0.4,0,0.7-0.1,1.1-0.1
		c0.5-0.1,1-0.2,1.4-0.3c0.3-0.1,0.6-0.2,0.9-0.3c0.4-0.1,0.7-0.3,1.1-0.4c0.5-0.2,0.9-0.4,1.3-0.7c0.3-0.2,0.7-0.4,1-0.6
		c0.3-0.2,0.6-0.4,0.9-0.6c0.5-0.4,0.9-0.7,1.3-1.1c0.3-0.3,0.6-0.6,0.9-0.9c0.3-0.3,0.6-0.5,0.8-0.8c0.5-0.5,0.9-1,1.2-1.3
		c0.3,0.2,0.7,0.5,1.2,0.9c0.5,0.3,1,0.7,1.7,1.1c0.5,0.3,1,0.6,1.5,0.8c0.7,0.3,1.4,0.7,2.1,0.9c0.5,0.2,0.9,0.3,1.4,0.5
		c0.3,0.1,0.6,0.2,1,0.2l0.2-0.8c-0.4-0.1-0.7-0.2-1.1-0.3l0.8-8.5c0.7-0.1,1.4-0.1,2.2,0c0,0,0.1,0,0.1,0l0.2-0.8
		C60.8,1.6,60.8,1.6,60.7,1.6z M27.2,20.3l-5-5.6c0.9-0.4,1.9-0.6,2.7-0.7l3.2,4C27.9,18.8,27.6,19.5,27.2,20.3z M28.7,16.2L27,13.8
		c1.4,0,2.3,0.2,2.3,0.2S29.1,14.9,28.7,16.2z M31.8,13.3c-0.6-0.1-1-0.2-1-0.2s0.1-0.4,0.3-1c0.2-0.6,0.6-1.5,1.1-2.4l2.2,4.1
		C33.3,13.5,32.4,13.4,31.8,13.3z M37.3,13.8c-0.4,0-0.8,0-1.2,0L33.3,8c0.3-0.3,0.6-0.7,0.9-1c0.3-0.3,0.7-0.6,1.1-0.9l3.2,7.6
		C38.1,13.7,37.7,13.8,37.3,13.8z M40.9,13.2c-0.3,0.1-0.6,0.2-0.9,0.3l-3.1-8.3c0.3-0.2,0.7-0.3,1.1-0.4c0.5-0.2,0.9-0.3,1.4-0.4
		l2.7,8.4C41.6,12.9,41.2,13.1,40.9,13.2z M44.2,11.2c-0.3,0.2-0.6,0.5-1,0.7l-2.2-7.8c0.5,0,0.9,0,1.4,0.1c0.5,0.1,0.9,0.1,1.3,0.2
		l1.3,6C44.9,10.7,44.6,11,44.2,11.2z M48.1,7.5c-0.2,0.2-0.4,0.5-0.7,0.8c-0.3,0.3-0.6,0.6-0.9,1l-0.8-4.2c0.5,0.2,0.9,0.4,1.2,0.6
		c0.4,0.2,0.7,0.4,0.9,0.6c0.5,0.3,0.8,0.6,0.8,0.6S48.4,7.1,48.1,7.5z M51,7c-0.3-0.3-0.5-0.4-0.5-0.4s0.2-0.2,0.5-0.5
		c0.3-0.3,0.8-0.8,1.4-1.2l0.1,3.3C51.9,7.7,51.4,7.3,51,7z M56.2,10.3C55.4,10,54.7,9.6,54,9.2V3.7c0.8-0.4,1.6-0.8,2.6-1
		L56.2,10.3z M30.5,14.3L29.2,14 M29.5,12.8l1.2,0.3 M48.7,6.8l1,0.8 M49.5,5.8l1,0.8"/>
	<linearGradient id="SVGID_2_" gradientUnits="userSpaceOnUse" x1="59.3385" y1="14.2507" x2="93.5137" y2="14.2507">
		<stop  offset="0" style="stop-color:#11FF96"/>
		<stop  offset="1" style="stop-color:#CFFF11"/>
	</linearGradient>
	<linearGradient id="SVGID_3_" gradientUnits="userSpaceOnUse" x1="58.9681" y1="14.2976" x2="93.9463" y2="14.2976">
		<stop  offset="0" style="stop-color:#11FF96"/>
		<stop  offset="1" style="stop-color:#CFFF11"/>
	</linearGradient>
	<path fill="url(#SVGID_2_)" stroke="url(#SVGID_3_)" stroke-width="0.6" stroke-miterlimit="10" d="M84.1,26.5
		C78.7,19.6,70.9,14.6,62,12.6c0,0-1-0.2-2.7-0.4L61.9,2c2,0.1,3.4,0.3,3.4,0.3C76.7,4.8,86.6,11.2,93.5,20L84.1,26.5z"/>
	<linearGradient id="SVGID_4_" gradientUnits="userSpaceOnUse" x1="5.0989" y1="56.0346" x2="94.9011" y2="56.0346">
		<stop  offset="0" style="stop-color:#11FF96"/>
		<stop  offset="1" style="stop-color:#CFFF11"/>
	</linearGradient>
	<linearGradient id="SVGID_5_" gradientUnits="userSpaceOnUse" x1="4.7989" y1="56.0346" x2="95.2011" y2="56.0346">
		<stop  offset="0" style="stop-color:#11FF96"/>
		<stop  offset="1" style="stop-color:#CFFF11"/>
	</linearGradient>
	<path fill="url(#SVGID_4_)" stroke="url(#SVGID_5_)" stroke-width="0.6" stroke-miterlimit="10" d="M94.9,46v31.8
		C86,90.3,71.2,98.5,54.5,98.5c-27.3,0-49.4-21.8-49.4-48.7c0-12.9,5.1-24.6,13.4-33.3l7,7.4c-6.4,6.8-10.3,15.9-10.3,25.9
		c0,21,17.2,38.1,38.4,38.1c12.3,0,23.2-5.7,30.1-14.6V53.2h-1.3v18.9c-6.6,8.5-17,13.9-28.7,13.9c-20.2,0-36.6-16.2-36.6-36.2
		c0-20,16.4-36.2,36.6-36.2c11.8,0,22.3,5.5,29,14.1L74,33.5c-5-6.3-12.6-10.5-21.3-10.5C38,23.1,26,35.1,26,49.8
		c0,14.8,12,26.7,26.7,26.7c7.6,0,14.5-3.2,19.3-8.3v-8.1H56.8V46H94.9z"/>
	<linearGradient id="SVGID_6_" gradientUnits="userSpaceOnUse" x1="17.8492" y1="39.7216" x2="82.7822" y2="39.7216">
		<stop  offset="0" style="stop-color:#11FF96"/>
		<stop  offset="1" style="stop-color:#09FFEE"/>
	</linearGradient>
	<linearGradient id="SVGID_7_" gradientUnits="userSpaceOnUse" x1="17.3492" y1="40.0132" x2="83.5082" y2="40.0132">
		<stop  offset="0" style="stop-color:#11FF96"/>
		<stop  offset="1" style="stop-color:#09FFEE"/>
	</linearGradient>
	<path fill="url(#SVGID_6_)" stroke="url(#SVGID_7_)" stroke-miterlimit="10" d="M21.9,58.6c-4.1-5.7-5.1-13.1-3-19.8
		c4.7-14.6,18.5-25.2,34.9-25.2c11.8,0,22.3,5.5,29,14.1L74,33.5c-5.4-7-14.2-11.3-23.9-10.3c-12.5,1.2-22.6,11.1-23.9,23.6
		c-0.8,7.2,1.3,13.9,5.2,19.1c0,0-5.8-2.2-9.3-7.1C22,58.7,21.9,58.7,21.9,58.6z"/>
</g>
</svg>
