<?xml version="1.0" encoding="utf-8"?>
<!-- Generator: Adobe Illustrator 18.0.0, SVG Export Plug-In . SVG Version: 6.00 Build 0)  -->
<!DOCTYPE svg PUBLIC "-//W3C//DTD SVG 1.1//EN" "http://www.w3.org/Graphics/SVG/1.1/DTD/svg11.dtd">
<svg version="1.1" id="Layer_1" xmlns="http://www.w3.org/2000/svg" xmlns:xlink="http://www.w3.org/1999/xlink" x="0px" y="0px"
	 viewBox="124 106 473 508" enable-background="new 124 106 473 508" xml:space="preserve">
<g>
	<path fill="none" stroke="#FFFFFF" stroke-width="2" stroke-miterlimit="10" d="M415.8,110.6c-3.9-0.5-7.8-0.6-11.4-0.5
		c-3.3,0.1-6.5,0.5-9.5,1.1c-4.9,1-9.4,2.5-13.5,4.3c-3.3,1.5-6.4,3.1-9,4.8c-3.5,2-6.4,4.4-8.9,6.5c-2.4,2.1-4.4,4-5.8,5.5
		c-2-1.5-4.6-3.1-8.1-5c-1.8-0.9-3.6-1.9-5.8-2.8c-2.1-0.9-4.4-1.6-6.7-2.4c-3-0.9-6.4-1.8-9.8-2.3c-2.1-0.3-4.5-0.5-6.8-0.6
		c-2.4-0.1-4.8-0.1-7.3,0.1c-3.1,0.3-6.3,0.6-9.5,1.3c-2.4,0.5-4.9,1.3-7.3,2.1c-1.9,0.8-3.9,1.4-5.6,2.3c-2.9,1.5-5.6,3-8.3,4.6
		c-2.1,1.3-4,2.8-5.8,4.3c-1.7,1.5-3.5,3-5,4.6c-2.5,2.4-4.5,5.1-6.4,7.6c-3.3,4.3-5.5,8.8-7.3,12.5c-0.9,1.9-1.5,3.6-2.1,5.3
		c-0.5,1.6-1,3.1-1.3,4.4c-3.8-0.5-9.9-1.3-17.3-0.4c-3.1,0.4-6.6,0.8-10.1,1.7c-4.2,1.1-8.9,2.6-13.3,5c-2.8,1.4-5.6,3-8.3,4.9
		c-1.4,1-2.9,2.1-4.2,3.4l2.7,3c1.5-1.1,3-2.3,4.5-3.3l30.3,31.6c-1.3,2-2.5,3.9-4,5.6l2.6,3c1.6-1.7,3-3.6,4.4-5.6
		c1.5-2.1,3-4.2,4.2-6.5c2-3.6,3.9-7.1,5.4-10.8c1.3-3,2.4-5.8,3.4-8.5c2.3-6.4,3.9-11.9,4.8-15.6c1.3,0.2,2.6,0.4,4.2,0.6
		c1.6,0.2,3.5,0.5,5.4,0.8c3.9,0.5,8.4,0.8,13.1,1c2.9,0.1,5.6,0,8.6,0c1.9,0,3.8-0.2,5.6-0.4c1.9-0.3,3.8-0.5,5.8-0.8
		c2.5-0.4,4.9-1,7.4-1.6c1.5-0.4,3-0.9,4.6-1.4c1.9-0.6,3.8-1.5,5.5-2.3c2.4-1,4.6-2.1,6.8-3.4c1.8-1,3.4-2,5-3.1
		c1.6-1,3.1-2.1,4.6-3.4c2.4-1.9,4.6-3.5,6.7-5.4c1.6-1.5,3.3-3,4.8-4.4c1.5-1.4,2.9-2.8,4.3-4c2.6-2.6,4.7-5,6.3-6.8
		c1.6,1.3,3.8,2.9,6.3,4.5c2.5,1.8,5.4,3.5,8.6,5.5c2.5,1.5,5.1,3,7.9,4.4c3.4,1.8,7.1,3.4,10.9,4.9c2.4,0.9,4.9,1.6,7.4,2.4
		c1.6,0.5,3.3,0.9,5,1.1l0.9-3.9c-1.9-0.4-3.8-0.9-5.5-1.5l3.9-44c3.6-0.4,7.5-0.4,11.3,0.3c0.1,0,0.4,0,0.5,0.1l0.9-3.9
		C416.3,110.8,416,110.6,415.8,110.6z M243.1,207.1l-25.6-28.9c4.6-2,9.5-3.1,13.9-3.9l16.6,20.9C246.8,199.1,245,203,243.1,207.1z
		 M250.9,185.8l-9-12.3c7-0.1,11.6,1,11.6,1S252.6,179.3,250.9,185.8z M266.6,170.8c-3.4-0.6-5.4-1.1-5.4-1.1s0.4-2,1.5-5.3
		c1.1-3.3,2.9-7.9,5.8-12.6l11.1,20.9C274.5,172,269.9,171.4,266.6,170.8z M294.9,173.4c-2,0.1-4,0-6,0l-14.5-29.9
		c1.4-1.6,3-3.4,4.6-5c1.6-1.6,3.5-3.3,5.5-4.6l16.5,39.3C299,173.1,296.9,173.3,294.9,173.4z M313.4,170.3c-1.5,0.5-3.1,1-4.6,1.4
		l-16.3-42.9c1.8-0.9,3.6-1.6,5.5-2.3c2.4-0.9,4.9-1.5,7.3-2l13.8,43.2C317.1,168.8,315.3,169.6,313.4,170.3z M330.8,160.3
		c-1.6,1.3-3.4,2.4-5,3.6l-11.1-40.1c2.5-0.1,4.9,0.1,7.3,0.4c2.4,0.2,4.6,0.8,6.8,1.3l6.9,31C334,157.8,332.4,159,330.8,160.3z
		 M350.5,141c-1,1.1-2.3,2.5-3.6,4c-1.4,1.5-2.9,3.3-4.6,5l-3.9-21.5c2.4,1,4.5,2,6.4,3s3.5,2,4.7,2.9c2.6,1.8,4,2.9,4,2.9
		S352.5,138.8,350.5,141z M365.8,138.6c-1.7-1.4-2.9-2.3-2.9-2.3s0.9-1,2.5-2.8c1.6-1.8,4-4,7.2-6.4l0.6,17
		C370.1,142,367.5,140,365.8,138.6z M392.5,155.5c-4-1.8-7.8-3.9-11.1-6v-28c3.9-2.1,8.4-4,13.3-5.4L392.5,155.5z M259.9,175.9
		l-6.4-1.3 M254.9,168.3l6.4,1.4 M353.6,137.3l5.1,3.9 M357.8,132.1l5.1,4.1"/>
	<path fill="#FFFFFF" stroke="#FFFFFF" stroke-width="2" stroke-miterlimit="10" d="M536.3,239.1c-28-35.6-68-61.5-113.9-71.6
		c0,0-5-1-13.6-2.3l13-52.7c10.4,0.6,17.8,1.8,17.8,1.8c58.6,13,109.6,45.9,145.3,91.1L536.3,239.1z"/>
	<path fill="#FFFFFF" stroke="#FFFFFF" stroke-width="2" stroke-miterlimit="10" d="M591.9,339.5v163.6
		c-46,64.6-122.1,106.7-208.3,106.7c-140.5,0-254.5-112.4-254.5-250.9c0-66.4,26.1-126.7,68.9-171.6l36.1,38.1
		c-32.8,35-52.9,81.9-52.9,133.5c0,108.4,88.6,196.3,198,196.3c63.3,0,119.5-29.5,155.4-75.3V376.6H528v97.6
		c-34.1,43.6-87.8,71.6-147.9,71.6c-104.1,0-188.5-83.6-188.5-186.8S276,172.4,380.1,172.4c60.8,0,114.8,28.5,149.4,72.6l-45.3,30.1
		c-25.5-32.6-65.1-53.9-109.8-53.9c-76,0-137.7,61.6-137.7,137.8s61.6,137.8,137.7,137.8c39.3,0,74.6-16.4,99.6-42.6v-42h-78.5
		v-72.6H591.9z"/>
</g>
</svg>
